<svg xmlns="http://www.w3.org/2000/svg" viewBox="0 0 184.52 49.59"><defs><style>.cls-1{fill:#fff;}</style></defs><title>Asset 2</title><g id="Layer_2" data-name="Layer 2"><g id="Layer_1-2" data-name="Layer 1"><path class="cls-1" d="M132.58,14.38a44,44,0,0,0-4.54,4l-.43-.72c-.79,1.3-3.53,3.46-5.54,5.26a6.41,6.41,0,0,1-.51,1.51c-1.29,1.37-8.42,9.58-8.42,13.11,0,.86.36,1.37,1.15,1.37,2.59,0,8.57-1.73,12.89-2.38a2.41,2.41,0,0,1,2.16.72c-3.46.72-8.35,1.58-9.15,3,1.37.87,3.75.29,4.83-.79,3.81-.72,20.32-6,24-6.51l-2,1h4l-13.76,4.43c-.94.15,3.76.57,3.76.57-.65.29-13.19,4.18-18,5.7-.79.28-1.29,1-.86,1.51a27.25,27.25,0,0,1-5.47,1c-.8,0-1.44-1.16-2.16-1.16-1.73,0-2.16-1.8-4.47-1.51-1.29-1.22-4-5.83-4.61-6.91a5.35,5.35,0,0,1-.5-2.45V33.25c1.15-1,1.22-2.52,1.22-4l.72.44c.51-.8-.07-1.8.29-2.6,1.51-3,4.39-7.84,5.33-7.84s-.43,1.08.58,1.08c.79,0,2.3-3.75,3.09-3.75h.87a8.08,8.08,0,0,1-.36-2h.5C119.11,10,132.87,1.85,135.39,1.85a11,11,0,0,1,3.67,1.37c1,2.38,3,4.25,2.52,7.2A28,28,0,0,0,132.58,14.38ZM111.48,22l-1,1.66.65.5.94-1.51Zm.29-.5.72.43.57-1C112.49,20.72,112.13,20.86,111.77,21.51Zm1.08,11.88-.51,1,.44.58.79-1.59Zm3-4.68-.86,1.37c-.29.5-1.08,1.65-.72,2.3l2.23-3.31Zm3-4.1-.44.72.51.43.57-.72Zm1,0c1.52-1.52,1.52-1.8,1.52-2.09-.72,0-1.37.72-2.16,1.65Zm3.82,21.09,2.38-.79c.86.65.07,1.08-1,1.08A3.08,3.08,0,0,1,123.65,45.7Zm8.14-2.44a9,9,0,0,1-4,1.58,2.23,2.23,0,0,1-1-.22c1.37-.57,3.31-.93,5-1.44Zm-2.24-7c2.88-.5,10.31-4.13,12.47-4.27-.36,1.22-7.21,4.7-9.37,4.7A8.31,8.31,0,0,1,129.55,36.27Zm13.85,1.89-.72-.86,1.95-.29.93.43Z"/><path class="cls-1" d="M27.58,16.38a44,44,0,0,0-4.54,4l-.43-.72c-.79,1.3-3.53,3.46-5.54,5.26a6.41,6.41,0,0,1-.51,1.51C15.27,27.83,8.14,36,8.14,39.57c0,.86.36,1.37,1.15,1.37,2.59,0,8.57-1.73,12.89-2.38a2.41,2.41,0,0,1,2.16.72c-3.46.72-8.35,1.58-9.15,3,1.37.87,3.75.29,4.83-.79,3.81-.72,20.32-6,24-6.51l-2,1h4L32.26,40.43C31.32,40.58,36,41,36,41c-.65.29-13.19,4.18-18,5.7-.79.28-1.29,1-.86,1.51a27.25,27.25,0,0,1-5.47,1c-.8,0-1.44-1.16-2.16-1.16-1.73,0-2.16-1.8-4.47-1.51-1.29-1.22-4-5.83-4.61-6.91A5.35,5.35,0,0,1,0,37.19V35.25c1.15-1,1.22-2.52,1.22-4l.72.44c.51-.8-.07-1.8.29-2.6,1.51-3,4.39-7.84,5.33-7.84s-.43,1.08.58,1.08c.79,0,2.3-3.75,3.09-3.75h.87a8.08,8.08,0,0,1-.36-2h.5C14.11,12,27.87,3.85,30.39,3.85a11,11,0,0,1,3.67,1.37c1,2.38,3,4.25,2.52,7.2A28,28,0,0,0,27.58,16.38ZM6.48,24l-1,1.66.65.5.94-1.51Zm.29-.5.72.43.57-1C7.49,22.72,7.13,22.86,6.77,23.51ZM7.85,35.39l-.51,1,.44.58.79-1.59Zm3-4.68-.86,1.37c-.29.5-1.08,1.65-.72,2.3l2.23-3.31Zm3-4.1-.44.72.51.43.57-.72Zm1,0c1.52-1.52,1.52-1.8,1.52-2.09-.72,0-1.37.72-2.16,1.65ZM18.65,47.7,21,46.91c.86.65.07,1.08-1,1.08A3.08,3.08,0,0,1,18.65,47.7Zm8.14-2.44a9,9,0,0,1-4,1.58,2.23,2.23,0,0,1-1-.22c1.37-.57,3.31-.93,5-1.44Zm-2.24-7C27.43,37.77,34.86,34.14,37,34c-.36,1.22-7.21,4.7-9.37,4.7A8.31,8.31,0,0,1,24.55,38.27ZM38.4,40.16l-.72-.86,2-.29.93.43Z"/><path class="cls-1" d="M95.1,24.32c.16-.49.32-.94.47-1.35L101,2,99,0c-6.22,0-7,5-9.77,10.37-1.31,2.79-2.79,6.5-4,9.63H86.6c-3.6,8.21-7.7,18.87-7.7,20.67a2.85,2.85,0,0,0,.57,1.51c.29,2.81.15,5.25,2,5.9l-.29.79a15.4,15.4,0,0,0,4.68.36,104.63,104.63,0,0,1,3.39-10.72c-.65-.15-1,.07-1.37.72l-.58-.36c.51-1.23,1-2.52,1.66-3.89.29.57-.15,1.94.57,1.94.51,0,.87-1.58,1.23-2.52a5.39,5.39,0,0,0-.43-2.09c.36-1.15.43-2.73,1.22-2.88.43-.07-.29,1.37.5,1.44s1.81-2.81,2.16-4.32l-.64-.36A5.63,5.63,0,0,0,95.1,24.32Zm-2.74,4.83-.43-.51.72-1.3.29.51Z"/><path class="cls-1" d="M68,31.91l-2.38.79A3.08,3.08,0,0,0,67,33C68.1,33,68.89,32.56,68,31.91Z"/><path class="cls-1" d="M73,24c2.16,0,10.64-3.78,11-5-2.16.14-9.59,3.77-12.47,4.27C72.13,23.56,71.72,24,73,24Z"/><path class="cls-1" d="M91,20c-3.68.5-20.19,5.28-24,6-1.08,1.08-3.46,2.17-4.83,1.3.8-1.44,5.69-2.3,9.15-3a2.41,2.41,0,0,0-2.16-.72C64.86,24.21,58.61,27,56,27c-.62,0-4.77,3.74-3.91,4.55,2.31-.29,2.74,1.51,4.47,1.51.72,0,.64-2.06,1.44-2.06,1.65,0,4.68,2.57,6.19,2.21-.43-.51.07-1.23.86-1.51,4.76-1.52,17.3-4.41,18-4.7,0,0-2.94.14-2,0l12-4-4-2Z"/><path class="cls-1" d="M69.83,31.84a9,9,0,0,0,4-1.58v-.08c-1.66.51-3.6.87-5,1.44A2.23,2.23,0,0,0,69.83,31.84Z"/><polygon class="cls-1" points="84.68 24.3 85.4 25.16 87.56 24.44 86.63 24.01 84.68 24.3"/><path class="cls-1" d="M64.63,37.14C66,35.81,66,33.05,66.38,31.66l1.72-8.79q.16-1,.39-1.95v-.08h0c.19-.82.4-1.6.58-2.28a3.53,3.53,0,0,1-.43-.29c1.08-.65,1.23-6.84,1.15-7.2-1.36-2.09.15-6-2.52-8.28-.36-.29-2.16,1.08-2.08-.15l1.29-.43a15,15,0,0,0-4-2c-.15,1.36-2.16.64-2.67,1.08A53.12,53.12,0,0,0,50.23,11c-6.77,9.07-18.8,20.73-20.38,31.61H31c-.79,1.87,2.31,2.81,2.52,5l4.54,1.94c1.15-1.51,2.23-4.46,3.46-7l-.29-.87L41,40c3.24-2.23,14-6,18.78-7.11.15,1.08-.21,1.29-.14,2.16l-1.22-1.51c-.22.86-.44,3.38-.65,4.39.86.36.86-1.23.93-2.38l.87.36c-.15,1.66-.94,4.61-1.44,4.61.07-1.08.07-2-.43-2-.44,2.16-1.3,4.25-1.44,5.91,0,.5.28.72.64.72-.07.5-.36.72-.72.72l-.07,1c1,0,1.23.57,1.15,2C58,49,60.78,49,63,49a13.73,13.73,0,0,0,1.1-5c-.14.14-.86.5-.79.21,1.51-2,1.23-2.8.79-3.88C65.06,39.51,65.64,37.71,64.63,37.14ZM58.22,42h-.43l.29-.94.43-.21Zm-13-7.42c.5-.21.94-.28,1.51-.5-.43,1-2.09,1.58-2.37,1.73Zm-2.38,3.82a12.35,12.35,0,0,1,.8-1.3c1.36-.72,3.74-2.3,4.68-1.58Zm8.86-4.61c-.79.51-1.87.94-2.52,1.3.29-1.15.94-1.3,2.52-1.37ZM61,24.46c-.51.07-1,.07-.72-.79h.79Zm-.65-1.22.29-.79.29.07.07.72Zm1.51-1.8-1.22-1.08A35.85,35.85,0,0,0,59,26a95.26,95.26,0,0,0-11.6,4.29c1.66-2.37,3.6-5.47,4.9-7.12.93-1.16,1.94-2.45,3-3.89-.65-1.37-.14-2,1-3.31.29.28.07.72-.15,1.29l.36.36c3.1-4.1,6.41-8.14,7.78-8.21l.22.72C63.76,13.37,62.76,19.21,61.89,21.44Z"/><polygon class="cls-1" points="62.4 13.66 63.05 13.66 63.62 11.43 62.97 11.72 62.4 13.66"/><path class="cls-1" d="M73,24c2.11-.29,13.77-3.76,16-4.17a2.55,2.55,0,0,1,2.78-.46c-.46.83-3.27,1.33-5.26,1.74a1.37,1.37,0,0,0,1.24.42c2.49-.38,5.93-1.37,7.42-1.37.35,0,2.9-2.77,2.4-3.23-1.32.16-1.57-.88-2.57-.88-.41,0-.37,1.19-.82,1.19-1,0-2.7-1.48-3.57-1.27.25.29,0,.71-.5.87C87.37,17.71,83,19,82,20l-8,3h2.3Z"/><path class="cls-1" d="M136,4c-11,8-31.77,9.74-30.91,10.55,2.31-.29,2.74,1.51,4.47,1.51.72,0,.64-2.06,1.44-2.06,1.65,0,4.68,2.57,6.19,2.21-.43-.51.07-1.23.86-1.51,4.76-1.52,17.3-4.41,18-4.7,0,0-2.94.14-2,0l6-2-1-3Z"/><path class="cls-1" d="M100,21.91l-2.38.79A3.08,3.08,0,0,0,99,23C100.1,23,100.89,22.56,100,21.91Z"/><path class="cls-1" d="M105,14c2.16,0,10.64-3.78,11-5-2.16.14-9.59,3.77-12.47,4.27C104.13,13.56,103.72,14,105,14Z"/><path class="cls-1" d="M123,10c-3.68.5-20.19,5.28-24,6-1.08,1.08-3.46,2.17-4.83,1.3.8-1.44,5.69-2.3,9.15-3a2.41,2.41,0,0,0-2.16-.72C96.86,14.21,90.61,17,88,17c-.62,0-4.77,3.74-3.91,4.55,2.31-.29,2.74,1.51,4.47,1.51.72,0,.64-2.06,1.44-2.06,1.65,0,4.68,2.57,6.19,2.21-.43-.51.07-1.23.86-1.51,4.76-1.52,17.3-4.41,18-4.7,0,0-2.94.14-2,0l12-4-4-2Z"/><path class="cls-1" d="M101.83,21.84a9,9,0,0,0,4-1.58v-.08c-1.66.51-3.6.87-5,1.44A2.23,2.23,0,0,0,101.83,21.84Z"/><polygon class="cls-1" points="116.68 14.29 117.4 15.16 119.56 14.44 118.63 14.01 116.68 14.29"/><path class="cls-1" d="M105,14c2.11-.29,13.77-3.76,16-4.17a2.55,2.55,0,0,1,2.78-.46c-.46.83-3.27,1.33-5.26,1.74a1.37,1.37,0,0,0,1.24.42c2.49-.38,5.93-1.37,7.42-1.37.35,0,2.9-2.77,2.4-3.23-1.32.16-1.57-.88-2.57-.88-.41,0,6.48-3,6-3-1,0-9.55,2.76-10.42,3,.25.29,0,.71-.5.87C119.37,7.71,115,9,114,10l-8,3h2.3Z"/><path class="cls-1" d="M160,26c2.16,0,13.87-3.78,14.23-5-2.17.14-14.35,4.5-17.23,5C157.59,26.29,158.72,26,160,26Z"/><path class="cls-1" d="M175.69,22.39c-3.65.66-14.48,4.75-18.38,5.69a.52.52,0,0,0-.25.14c-1.08,1.09-3.3,2.17-4.66,1.39C153,29,162.59,24.86,166,24c-.38-.42-5.79,1.41-6.79,1.59-4.29.82-11.53,6.9-14.12,7a6.45,6.45,0,0,0-1.91.57.55.55,0,0,0,.19,1.05c1.57.14,2.15,1.43,3.63,1.37.72,0-.51,2,.28,1.93,1.48-.06,5-1.34,6.79-1.91a.53.53,0,0,0,.39-.53c-.06-.44.37-.94,1-1.19,4.11-1.49,12.48-3.44,14.91-4.11a.53.53,0,0,0,.39-.64c-.06-.23,0-.48.45-.57l4.59-4.17,0,0,1.91-2.06-2,.08Z"/><path class="cls-1" d="M158.59,34.15a16.13,16.13,0,0,0,5.27-2.42v-.07c-2.23.85-4.88,1.63-6.7,2.49A4.34,4.34,0,0,0,158.59,34.15Z"/><path class="cls-1" d="M181.06,2a2,2,0,0,0-1.66.85c-3,5.66-5.59,11.36-9.36,16.45-.1.14-.2.28-.28.42l-7.15,12.61c-2.05,3.91-4.45,9.29-4.45,13,0,2.15,0,2.54.56,2.94a4.46,4.46,0,0,0,2.76.69c1.66-.11,4.09-.51,5.54-1.93,1.2-1.19,2.66-4.19,1.73-4.68-1.59,3.26-2.88,5.32-3.39,4.26a1.89,1.89,0,0,1,.44-1.1,4.25,4.25,0,0,0,.76-3,2.64,2.64,0,0,1,.24-1.75c.58-1,1.15-1.84,1.44-2.34s.94-.85,1.23-.71l.79.28c2.81-4,3.89-8.09,6.19-12.14A1.86,1.86,0,0,0,174.8,27l-.87,1.78c-.36.71-.93.35-.79.07.65-1.35,1.51-3,2-3.84a3.76,3.76,0,0,1,1.62-1.45,4.64,4.64,0,0,0,2-1.7,12.36,12.36,0,0,0,1.77-3.33,4.23,4.23,0,0,1,1-1.84A6.51,6.51,0,0,0,183,13.5a3,3,0,0,1,.61-1.28,6.91,6.91,0,0,0,.87-3.9C184.52,5.62,183.58,2,181.06,2ZM164.5,46l-.43-.57.72-1.42a1,1,0,0,1,.93-.43Zm8.78-15.7-1.94,3.91c-.43.92-1.08,2.13-1.94,2.2l2.95-5.68A1,1,0,0,1,173.28,30.27Z"/><path class="cls-1" d="M168.82,38.94l-1.08,1.56.07.78c0,.21.22.21.36-.07l1.37-2.27-.22-.22C169.18,38.58,169,38.72,168.82,38.94Z"/><path class="cls-1" d="M148.37,38.35h0c.17-.52.34-1,.5-1.48l.19-.06,1.15-2.54-.32.18a2.58,2.58,0,0,1,.51-.61l3.91-8.71h0a4,4,0,0,1,2.07-2.33c1.51-3.13,4.1-6.61,4.82-8.88h.51c1.08-3.62.57-5.33.5-7.74-2.09-1.92-1.8-4.12-5.62-4.12-.93,0-.72.35-1,.57-2.24,5.54-6.77,12.43-10.16,18.75-1.29,2.41-1.73,5.68-3,8-.51,1-2,2.76-2.39,3.83l-2,1-.15.1c-1.29.64-2.81.92-3.6,2.34a32.18,32.18,0,0,1,5.83.07c-.86,5.54-3.4,8.53.92,11.3a14.46,14.46,0,0,0,4,1c.55-2.49,2.07-6.75,3.35-10.66Zm.66-4.12-.33.88-.89.51C148.13,34.88,148.51,34.23,149,34.23Z"/><path class="cls-1" d="M176.69,20.39C173,21.05,165,25,160,26c-4.29.86-11.32,4.49-13.91,4.59a6.45,6.45,0,0,0-1.91.57.55.55,0,0,0,.19,1.05c1.57.14,2.15,1.43,3.63,1.37.72,0-.5,2.08.28,1.93C151,35,169,29,171.36,27.77c.26-.13.47-.36.39-.64s0-.48.45-.57l4.59-4.17,0,0,1.91-2.06-2,.08Z"/></g></g></svg>